<?xml version="1.0" standalone="no"?><!DOCTYPE svg PUBLIC "-//W3C//DTD SVG 1.1//EN" "http://www.w3.org/Graphics/SVG/1.1/DTD/svg11.dtd"><svg t="1678181586378" class="icon" viewBox="0 0 1024 1024" version="1.1" xmlns="http://www.w3.org/2000/svg" p-id="26742" xmlns:xlink="http://www.w3.org/1999/xlink" width="200" height="200"><path d="M670.72 592.896V198.656C670.72 129.024 608.256 71.68 531.456 71.68s-139.264 57.344-139.264 128V593.92C339.968 634.88 307.2 698.368 307.2 770.048c0 122.88 100.352 223.232 224.256 223.232s224.256-100.352 224.256-224.256c0-71.68-32.768-135.168-84.992-176.128z" fill="#FFFFFF" p-id="26743"></path><path d="M531.456 1003.52C402.432 1003.52 296.96 898.048 296.96 769.024c0-69.632 30.72-135.168 84.992-180.224v-389.12C381.952 122.88 448.512 61.44 531.456 61.44s149.504 61.44 149.504 138.24v389.12c54.272 45.056 84.992 110.592 84.992 180.224C765.952 898.048 660.48 1003.52 531.456 1003.52zM402.432 590.848c1.024 4.096 0 7.168-3.072 10.24-52.224 40.96-80.896 102.4-80.896 167.936C317.44 886.784 413.696 983.04 531.456 983.04s214.016-96.256 214.016-214.016c0-65.536-29.696-126.976-80.896-167.936-3.072-3.072-5.12-7.168-3.072-11.264V199.68C660.48 134.144 603.136 81.92 531.456 81.92s-129.024 52.224-129.024 117.76v391.168z" fill="#1C1C1C" p-id="26744"></path><path d="M404.48 202.752l108.544 2.048" fill="#FFFFFF" p-id="26745"></path><path d="M513.024 215.04l-109.568-3.072c-6.144 0-10.24-5.12-10.24-10.24 0-6.144 5.12-10.24 10.24-10.24l110.592 3.072c6.144 0 10.24 5.12 10.24 10.24-1.024 6.144-5.12 10.24-11.264 10.24zM513.024 293.888H404.48c-6.144 0-10.24-4.096-10.24-10.24s4.096-10.24 10.24-10.24h109.568c6.144 0 10.24 4.096 10.24 10.24s-5.12 10.24-11.264 10.24zM513.024 360.448H404.48c-6.144 0-10.24-4.096-10.24-10.24s4.096-10.24 10.24-10.24h109.568c6.144 0 10.24 4.096 10.24 10.24s-5.12 10.24-11.264 10.24zM513.024 433.152H404.48c-6.144 0-10.24-4.096-10.24-10.24s4.096-10.24 10.24-10.24h109.568c6.144 0 10.24 4.096 10.24 10.24s-5.12 10.24-11.264 10.24z" fill="#1C1C1C" p-id="26746"></path><path d="M513.024 505.856H404.48c-6.144 0-10.24-4.096-10.24-10.24s4.096-10.24 10.24-10.24h109.568c6.144 0 10.24 4.096 10.24 10.24s-5.12 10.24-11.264 10.24z" fill="#1C1C1C" p-id="26747"></path><path d="M695.296 762.88c0 90.112-73.728 163.84-163.84 163.84s-163.84-73.728-163.84-163.84h327.68z" fill="#C1FDF2" p-id="26748"></path><path d="M531.456 936.96c-96.256 0-174.08-77.824-174.08-174.08v-10.24h348.16v10.24c0 96.256-77.824 174.08-174.08 174.08zM378.88 773.12c5.12 79.872 71.68 143.36 153.6 143.36 80.896 0 147.456-63.488 153.6-143.36H378.88z" fill="#1C1C1C" p-id="26749"></path></svg>