<?xml version="1.0" standalone="no"?><!DOCTYPE svg PUBLIC "-//W3C//DTD SVG 1.1//EN" "http://www.w3.org/Graphics/SVG/1.1/DTD/svg11.dtd"><svg t="1678181808084" class="icon" viewBox="0 0 1024 1024" version="1.1" xmlns="http://www.w3.org/2000/svg" p-id="40891" xmlns:xlink="http://www.w3.org/1999/xlink" width="200" height="200"><path d="M464.879213 161.808787c33.808787-76.766426 75.99423-134.278295 121.738492-134.278295 111.246689 0 201.442623 340.23659 201.442623 470.032787 0 129.796197-90.195934 235.016393-201.442623 235.016393s-201.442623-105.220197-201.442623-235.016393c0-54.842754 16.098623-147.271344 43.091934-235.721443l10.156066-31.542557a952.32 952.32 0 0 1 12.506229-34.614558l13.949902-33.875934zM196.87659 581.279475c-17.324066-47.32223-39.432393-83.716197-63.504787-83.716196-55.631738 0-100.721311 194.425705-100.721311 268.590164 0 74.164459 45.089574 134.295082 100.721311 134.295082s100.721311-60.130623 100.721312-134.295082c0-20.715016-3.525246-50.813902-9.803541-83.43082l-27.412984-101.443148z" fill="#3EBBDD" p-id="40892"></path><path d="M454.337049 235.687869l-31.811147-10.793967a944.93377 944.93377 0 0 1 12.741246-35.252459l31.341114 12.036196c-4.247082 11.129705-8.359869 22.494426-12.271213 34.01023z" fill="#000000" p-id="40893"></path><path d="M586.617705 749.366557c-120.328393 0-218.229508-112.958951-218.229508-251.803278 0-58.938754 17.18977-153.398557 43.830557-240.623213l32.096525 9.803541c-25.33141 83.011148-42.353311 175.792262-42.353312 230.819672 0 120.328393 82.843279 218.229508 184.655738 218.229508s184.655738-97.901115 184.655738-218.229508c0-138.760393-94.627672-453.245902-184.655738-453.245902-32.801574 0-71.579279 45.291016-106.378492 124.256525l-30.72-13.547017C491.704656 59.274492 537.835016 10.72682 586.617705 10.72682c130.098361 0 218.229508 365.467279 218.229508 486.819672 0 138.861115-97.901115 251.820066-218.229508 251.820065z" fill="#000000" p-id="40894"></path><path d="M1006.289836 866.874754c0 74.164459-45.089574 134.295082-100.721311 134.295082s-100.721311-60.130623-100.721312-134.295082 45.089574-268.590164 100.721312-268.590164 100.721311 194.425705 100.721311 268.590164z" fill="#3EBBDD" p-id="40895"></path><path d="M905.568525 1017.956721c-64.78059 0-117.508197-67.768656-117.508197-151.081967 0-68.809443 42.974426-285.377049 117.508197-285.377049 74.53377 0 117.508197 216.567607 117.508196 285.377049 0 83.313311-52.727607 151.081967-117.508196 151.081967z m0-402.885246c-33.758426 0-83.934426 165.08223-83.934427 251.803279 0 64.78059 37.652984 117.508197 83.934427 117.508197s83.934426-52.727607 83.934426-117.508197c0-86.721049-50.176-251.803279-83.934426-251.803279z" fill="#000000" p-id="40896"></path><path d="M435.535738 894.858492c0 49.454164-30.065311 89.524459-67.147541 89.524459s-67.147541-40.087082-67.147541-89.524459c0-49.437377 30.065311-179.065705 67.147541-179.065705s67.147541 129.611541 67.147541 179.065705z" fill="#FFFFFF" p-id="40897"></path><path d="M368.388197 1001.169836c-46.281443 0-83.934426-47.691541-83.934427-106.311344 0-40.171016 26.036459-195.85259 83.934427-195.85259s83.934426 155.681574 83.934426 195.85259c0 58.619803-37.652984 106.311344-83.934426 106.311344z m-0.100722-268.590164c-18.196984 3.122361-50.259934 106.244197-50.259934 162.27882 0 39.432393 23.06518 72.737574 50.360656 72.737574s50.360656-33.30518 50.360655-72.737574c0-56.034623-32.062951-159.156459-50.461377-162.27882z" fill="#000000" p-id="40898"></path><path d="M972.716066 273.743738c0 49.454164-30.065311 89.524459-67.147541 89.524459s-67.147541-40.087082-67.147541-89.524459c0-49.437377 30.065311-179.065705 67.147541-179.065705s67.147541 129.611541 67.147541 179.065705z" fill="#FFFFFF" p-id="40899"></path><path d="M905.568525 380.055082c-46.281443 0-83.934426-47.691541-83.934427-106.311344 0-40.171016 26.036459-195.85259 83.934427-195.85259s83.934426 155.681574 83.934426 195.85259c0 58.619803-37.652984 106.311344-83.934426 106.311344z m-0.100722-268.590164c-18.196984 3.122361-50.259934 106.244197-50.259934 162.27882 0 39.432393 23.06518 72.737574 50.360656 72.737573s50.360656-33.30518 50.360655-72.737573c0-56.034623-32.062951-159.156459-50.461377-162.27882z" fill="#000000" p-id="40900"></path><path d="M670.552131 934.022295c0 37.08223-22.544787 67.147541-50.360656 67.147541s-50.360656-30.065311-50.360655-67.147541 22.544787-134.295082 50.360655-134.295082 50.360656 97.212852 50.360656 134.295082z" fill="#3EBBDD" p-id="40901"></path><path d="M620.191475 1017.956721c-37.031869 0-67.147541-37.652984-67.147541-83.934426 0-25.616787 18.297705-151.081967 67.147541-151.081967s67.147541 125.46518 67.147541 151.081967c0 46.281443-30.115672 83.934426-67.147541 83.934426z m0-200.771147c-13.479869 10.659672-33.57377 79.569836-33.57377 116.836721 0 27.295475 15.376787 50.360656 33.57377 50.360656s33.57377-23.06518 33.573771-50.360656c0-37.266885-20.093902-106.177049-33.573771-116.836721z" fill="#000000" p-id="40902"></path><path d="M284.45377 312.907541c0 37.08223-22.544787 67.147541-50.360655 67.147541s-50.360656-30.065311-50.360656-67.147541 22.544787-134.295082 50.360656-134.295082 50.360656 97.212852 50.360655 134.295082z" fill="#FFFFFF" p-id="40903"></path><path d="M234.093115 396.841967c-37.031869 0-67.147541-37.652984-67.147541-83.934426 0-25.616787 18.297705-151.081967 67.147541-151.081967s67.147541 125.46518 67.147541 151.081967c0 46.281443-30.115672 83.934426-67.147541 83.934426z m0-200.771147c-13.479869 10.659672-33.57377 79.569836-33.573771 116.836721 0 27.295475 15.376787 50.360656 33.573771 50.360656s33.57377-23.06518 33.57377-50.360656c0-37.266885-20.093902-106.177049-33.57377-116.836721z" fill="#000000" p-id="40904"></path><path d="M133.371803 917.23541c-64.78059 0-117.508197-67.768656-117.508196-151.081967 0-68.809443 42.974426-285.377049 117.508196-285.37705 29.981377 0 55.900328 30.98859 79.267672 94.745181l-31.542557 11.549377c-21.01718-57.394361-39.885639-72.704-47.725115-72.704-33.758426 0-83.934426 165.08223-83.934426 251.803279 0 64.78059 37.652984 117.508197 83.934426 117.508196s83.934426-52.727607 83.934427-117.508196c0-19.623869-3.458098-48.88341-9.501378-80.241312l32.98623-6.362229c6.513311 33.875934 10.105705 64.629508 10.105705 86.603541-0.016787 83.296525-52.744393 151.06518-117.524984 151.06518z" fill="#000000" p-id="40905"></path><path d="M200.603279 652.640525a684.83777 684.83777 0 0 0-8.897049-33.338755l32.197245-9.501377c3.390951 11.515803 6.546885 23.28341 9.367082 35.017443l-32.667278 7.822689z" fill="#000000" p-id="40906"></path></svg>