<?xml version="1.0" standalone="no"?><!DOCTYPE svg PUBLIC "-//W3C//DTD SVG 1.1//EN" "http://www.w3.org/Graphics/SVG/1.1/DTD/svg11.dtd"><svg t="1678181666523" class="icon" viewBox="0 0 1024 1024" version="1.1" xmlns="http://www.w3.org/2000/svg" p-id="36729" xmlns:xlink="http://www.w3.org/1999/xlink" width="200" height="200"><path d="M512 362.666667m-256 0a256 256 0 1 0 512 0 256 256 0 1 0-512 0Z" fill="#FEE440" p-id="36730"></path><path d="M813.44 386.346667A298.666667 298.666667 0 0 0 725.333333 173.226667a302.293333 302.293333 0 0 0-426.666666 0 301.013333 301.013333 0 0 0 0 426.666666L445.866667 746.666667a93.653333 93.653333 0 0 0 132.266666 0l147.2-147.413334a298.666667 298.666667 0 0 0 88.106667-212.906666zM680.96 554.666667L533.333333 701.653333a30.933333 30.933333 0 0 1-43.946666 0L343.04 554.666667a237.653333 237.653333 0 0 1 0-337.28A238.72 238.72 0 1 1 681.173333 554.666667" p-id="36731"></path><path d="M512 938.666667c-196.48 0-405.333333-62.08-405.333333-177.28 0-29.226667 14.506667-72.32 82.986666-110.72a31.36 31.36 0 0 1 30.506667 54.613333c-32.426667 18.133333-51.2 38.613333-51.2 56.106667 0 46.933333 133.76 114.773333 343.04 114.773333s343.04-67.84 343.04-114.773333c0-17.493333-18.773333-37.973333-51.2-56.106667a31.36 31.36 0 0 1 30.506667-54.613333c68.48 38.4 82.986667 81.493333 82.986666 110.72 0 115.2-208.853333 177.28-405.333333 177.28zM512 516.48a130.133333 130.133333 0 1 1 129.92-130.133333 130.133333 130.133333 0 0 1-129.92 130.133333z m0-208.213333a78.08 78.08 0 1 0 77.866667 78.08A78.08 78.08 0 0 0 512 308.266667z" p-id="36732"></path></svg>