<?xml version="1.0" standalone="no"?><!DOCTYPE svg PUBLIC "-//W3C//DTD SVG 1.1//EN" "http://www.w3.org/Graphics/SVG/1.1/DTD/svg11.dtd"><svg t="1678181907121" class="icon" viewBox="0 0 1024 1024" version="1.1" xmlns="http://www.w3.org/2000/svg" p-id="41750" xmlns:xlink="http://www.w3.org/1999/xlink" width="200" height="200"><path d="M803.04 377.35c0 11.68-1.37 23.04-3.95 33.93-22.55-43.14-67.72-72.59-119.77-72.59-29.16 0-56.16 9.24-78.23 24.95-13.15-30.69-32.7-57.97-56.99-80.15 26.86-32.16 67.27-52.62 112.46-52.62 80.9 0 146.48 65.58 146.48 146.48z" fill="#B4E7B4" p-id="41751"></path><path d="M832.18 447.63c-2.69-15.91-7.83-31.2-15.37-45.62-26.87-51.4-79.55-83.33-137.49-83.33-24.53 0-48.28 5.67-69.79 16.54-13.44-24.81-31.14-47.51-51.94-66.51-46.56-42.55-106.96-65.99-170.09-65.99-11.42 0-22.91 0.77-34.16 2.3-10.95 1.48-18.62 11.56-17.13 22.5 1.48 10.95 11.56 18.62 22.5 17.13 9.47-1.28 19.16-1.93 28.79-1.93 53.12 0 103.94 19.71 143.11 55.52 22.25 20.32 40.26 45.65 52.09 73.26a20 20 0 0 0 29.98 8.42c19.53-13.9 42.57-21.24 66.63-21.24 43 0 82.1 23.7 102.04 61.85 7.18 13.75 11.44 28.58 12.65 44.09 0.67 8.56 6.72 15.73 15.04 17.83 56.55 14.27 96.04 65.03 96.04 123.44 0 30.4-10.88 59.82-30.64 82.85-19.55 22.79-46.54 37.99-75.99 42.79-1.87 0.3-3.67 0.87-5.37 1.68H657.93c-26.89-69.97-88.19-157.89-123.8-205.91-8.88-11.98-22.54-18.85-37.46-18.85-14.92 0-28.57 6.87-37.46 18.85-35.6 48.02-96.9 135.94-123.79 205.91-32.08 0-64.15-0.05-96.23 0.07-2.28 0.01-4.56 0.02-6.81-0.33-51.12-7.93-96.24-43.25-115.39-91.27-6.8-17.05-10.3-35.35-10.3-53.7 0-46.49 22.53-90.53 60.27-117.8a20.01 20.01 0 0 0 8.29-16.12c0.26-59.79 25.94-117.02 70.45-157.02 8.22-7.38 8.89-20.03 1.51-28.24-7.38-8.22-20.03-8.89-28.24-1.51-25.94 23.31-46.44 51.14-60.91 82.73-13.6 29.69-21.18 61.24-22.58 93.91-19.68 15.95-36.1 35.95-47.81 58.35-13.73 26.26-20.98 55.89-20.98 85.7 0 51.18 21.8 100.94 59.27 135.78 26.21 24.37 64.17 43.38 99.85 47.93 41.05 5.23 82.5 1.52 123.72 1.52 8.65 0 16.32-5.56 19.01-13.78 22.54-68.91 93.4-168.63 122.82-208.3 1.73-2.33 4.08-2.68 5.33-2.68s3.6 0.35 5.33 2.68c29.42 39.67 100.28 139.38 122.82 208.3a20.002 20.002 0 0 0 19.01 13.78h151.34c4.5 0 8.91-0.95 12.99-2.77 37.47-6.89 71.69-26.57 96.65-55.66 25.98-30.28 40.28-68.95 40.28-108.89-0.01-72.07-45.79-135.28-112.93-158.26z" fill="#004039" p-id="41752"></path><path d="M286.02 266.03c2.94 0 5.92-0.65 8.74-2.02 2.26-1.1 4.57-2.17 6.86-3.19 10.1-4.47 14.66-16.28 10.19-26.38-4.47-10.1-16.28-14.66-26.38-10.19-2.73 1.21-5.48 2.49-8.18 3.8-9.93 4.83-14.06 16.8-9.23 26.74 3.47 7.1 10.59 11.24 18 11.24z" fill="#004039" p-id="41753"></path><path d="M405.06 785.29c0 42.58 41.02 77.12 91.63 77.12s91.63-34.54 91.63-77.12c0-36.58-46.24-105.58-73.02-142.47-9.18-12.65-28.02-12.65-37.21 0-26.79 36.89-73.03 105.89-73.03 142.47zM836.89 364.97c0 13.86 11.24 25.1 25.1 25.1h49.98c13.98 0 25.33-11.15 25.33-25.1 0-13.88-11.12-25.1-25.33-25.1h-49.73c-14-0.01-25.35 11.14-25.35 25.1zM821.07 240.48l35.12-35.17c9.91-9.72 10.06-25.63 0.34-35.53-0.04-0.05-0.09-0.09-0.13-0.14-9.82-9.81-25.73-9.8-35.54 0.01l-0.16 0.16-35.12 35.17c-9.97 9.63-10.25 25.52-0.62 35.5 9.63 9.97 25.52 10.25 35.5 0.62 0.21-0.2 0.41-0.41 0.61-0.62zM661.1 189.15c13.88 0 25.1-11.12 25.1-25.35v-49.7c0.44-13.86-10.44-25.45-24.3-25.88-13.86-0.44-25.45 10.44-25.88 24.3-0.02 0.53-0.02 1.06 0 1.59v49.7c0 13.99 11.12 25.34 25.08 25.34z" fill="#B4E7B4" p-id="41754"></path><path d="M499.36 938.51c-1.67 0-3.33-0.03-5-0.09-67.12-2.35-112.74-51.91-114.64-54.02-7.41-8.19-6.78-20.84 1.41-28.25 8.17-7.4 20.79-6.79 28.21 1.36 0.51 0.55 36.81 39.37 86.79 40.95 31.62 1.01 62.87-13.12 92.91-41.97 7.97-7.65 20.63-7.39 28.28 0.58 7.65 7.97 7.39 20.63-0.58 28.28-36.77 35.29-76.24 53.16-117.38 53.16z" fill="#004039" p-id="41755"></path></svg>