<svg data-name="レイヤー 1" xmlns="http://www.w3.org/2000/svg" viewBox="0 0 1182.69 74.38"><path d="M58.17 74.38a4 4 0 01-3.12-1.48L.91 6.57a4.022 4.022 0 016.23-5.09l54.14 66.33a4 4 0 01-3.11 6.57zm1066.35 0a4 4 0 01-3.11-6.57l54.14-66.33a4.022 4.022 0 116.23 5.09l-54.14 66.33a4 4 0 01-3.12 1.48z" fill="#231815"/><path d="M146.03 47.82V8.06h-13.25v53.01h39.76V47.82h-26.51zm79.52-26.51V8.06h-39.76v53.01h39.76V47.82H212.3V34.57h-13.26V21.31h26.51zm225.45 0V8.06h-39.76v53.01H451V47.82h-13.25V34.57H424.5V21.31H451zM238.81 8.06v13.25h13.25v39.76h13.25V21.31h13.25V8.06h-39.75zm755.12 0v13.25h13.25v39.76h13.25V21.31h13.26V8.06h-39.76zm-702.11 0h13.25v13.25h-13.25zm53.01 13.25V8.06h-26.51v26.51h13.26V21.31h13.25zm-26.51 26.51v13.25h26.51v-26.5h-13.25v13.25h-13.26zm79.71-26.51V8.06h-26.51v26.51h13.26V21.31h13.25zm-26.51 26.51v13.25h26.51v-26.5h-13.25v13.25h-13.26zm119.19-26.51v13.26h-13.25V21.31h-13.25v39.76h13.25V47.82h13.25v13.25h13.26V21.31h-13.26z"/><path d="M477.46 8.06h13.25v13.25h-13.25zm172.29 0v26.51H636.5V8.06h-13.25v53.01h13.25V47.82h13.25v13.25h13.26V8.06h-13.26zM543.73 21.31h13.25v13.25h-13.25zm-13.26 13.26V21.31h13.26V8.06h-26.51v53.01h13.25V47.82h13.26V34.57h-13.26zm13.26 13.25h13.25v13.25h-13.25zM715.8 21.31v13.26h-13.25V21.31h-13.26v39.76h13.26V47.82h13.25v13.25h13.25V21.31H715.8z"/><path d="M702.55 8.06h13.25v13.25h-13.25zm119.16 13.25v13.26h-13.25V21.31H795.2v39.76h13.26V47.82h13.25v13.25h13.25V21.31h-13.25z"/><path d="M808.46 8.06h13.25v13.25h-13.25zm-39.65 13.25h13.25v13.25h-13.25zm-13.25 13.26V21.31h13.25V8.06h-26.5v53.01h13.25V47.82h13.25V34.57h-13.25zm13.25 13.25h13.25v13.25h-13.25zM583.49 21.31h26.5V8.06h-39.76v53.01h39.76V47.82h-26.5V21.31zm264.65 13.26h26.51v13.25h-26.51zm53.01-13.26h13.26V8.06H887.9v53.01h26.51V47.82h-13.26V21.31zm13.26 0h13.25v26.51h-13.25zm26.5-13.25v53h39.76v-53zm26.51 39.76h-13.26v-26.5h13.26z"/></svg>