<?xml version="1.0" standalone="no"?><!DOCTYPE svg PUBLIC "-//W3C//DTD SVG 1.1//EN" "http://www.w3.org/Graphics/SVG/1.1/DTD/svg11.dtd"><svg t="1679910612811" class="icon" viewBox="0 0 1024 1024" version="1.1" xmlns="http://www.w3.org/2000/svg" p-id="14974" xmlns:xlink="http://www.w3.org/1999/xlink" width="200" height="200"><path d="M314.9 923.5h395c48.6 0 88.1-39.5 88.1-88.2v-138c-31.6 29.5-111.9 81.5-285.7 81.5-173.8 0-254-52-285.6-81.4v138c0 48.6 39.6 88.1 88.2 88.1zM639.2 126.8c-32.4-18-77.5-27.8-126.8-27.8-91.2 0-163.7 34.4-171.4 79.6 32.1-13.2 102.8-38.3 176.3-38.3 72 0 136.1 24.1 166.2 37.5-4.7-25.4-29.1-42.6-44.3-51z" fill="#F5CB2B" p-id="14975" data-spm-anchor-id="a313x.7781069.0.i23" class="selected"></path><path d="M815.3 313.1c-9.6 0-17.4 7.8-17.4 17.4v504.9c0 48.6-39.5 88.2-88.1 88.2h-395c-48.6 0-88.1-39.5-88.1-88.2v-505c0-9.6-7.8-17.4-17.4-17.4-9.6 0-17.4 7.8-17.4 17.4v504.9c0 67.8 55.1 122.9 122.8 122.9h395c67.7 0 122.9-55.1 122.9-122.9V330.4c0.1-9.6-7.7-17.3-17.3-17.3zM893.4 216.2H131.3c-9.6 0-17.4 7.8-17.4 17.4 0 9.6 7.8 17.4 17.4 17.4h762.2c9.6 0 17.4-7.8 17.4-17.4-0.1-9.6-7.9-17.4-17.5-17.4zM322.9 203.8c9.6 0 17.4-7.8 17.4-17.4 0-2.7 0.3-5.3 0.8-7.9 7.7-45.2 80.1-79.6 171.4-79.6 49.3 0 94.4 9.9 126.8 27.8 15.2 8.4 39.6 25.6 44.4 50.9 0.5 2.8 0.9 5.7 0.9 8.8 0 9.6 7.8 17.4 17.4 17.4 9.6 0 17.4-7.8 17.4-17.4 0-35.5-22.4-67.5-63.2-90.1-37.5-20.8-88.5-32.2-143.6-32.2-119.8 0-206.8 51.4-206.8 122.3-0.3 9.7 7.5 17.4 17.1 17.4z" fill="#6B400D" p-id="14976"></path><path d="M418.2 680V436.4c0-9.6-7.8-17.4-17.4-17.4s-17.4 7.8-17.4 17.4V680c0 9.6 7.8 17.4 17.4 17.4s17.4-7.8 17.4-17.4zM529.7 680V436.4c0-9.6-7.8-17.4-17.4-17.4s-17.4 7.8-17.4 17.4V680c0 9.6 7.8 17.4 17.4 17.4s17.4-7.8 17.4-17.4zM650.1 680V436.4c0-9.6-7.8-17.4-17.4-17.4s-17.4 7.8-17.4 17.4V680c0 9.6 7.8 17.4 17.4 17.4s17.4-7.8 17.4-17.4z" fill="#6B400D" p-id="14977"></path></svg>